<svg width="16" height="16" viewBox="0 0 16 16" fill="none" xmlns="http://www.w3.org/2000/svg">
<path d="M4.96777 14.6094H11.709C13.0229 14.6094 13.6768 13.9429 13.6768 12.6226V6.85889C13.6768 6.04004 13.5815 5.68457 13.0737 5.16406L9.57617 1.60303C9.09375 1.10791 8.69385 1 7.98291 1H4.96777C3.66016 1 3 1.67285 3 2.99316V12.6226C3 13.9492 3.65381 14.6094 4.96777 14.6094ZM5.01221 13.5874C4.3584 13.5874 4.02197 13.2383 4.02197 12.6035V3.01221C4.02197 2.38379 4.3584 2.02197 5.01855 2.02197H7.84326V5.70996C7.84326 6.50977 8.24316 6.90332 9.03662 6.90332H12.6548V12.6035C12.6548 13.2383 12.3184 13.5874 11.6582 13.5874H5.01221ZM9.15088 5.94482C8.89697 5.94482 8.80176 5.84326 8.80176 5.58936V2.21875L12.458 5.94482H9.15088Z" fill="#0A84FF"/>
</svg>
